<svg xmlns="http://www.w3.org/2000/svg" width="920" height="520" viewBox="0 0 920 520">
  <rect width="920" height="520" fill="#ffffff"/>
  <text x="460" y="36" text-anchor="middle" fill="#0f172a" font-size="28" font-family="Arial, Helvetica, sans-serif" font-weight="700">Eficiencia da Paralelizacao</text>

  <line x1="90" y1="80" x2="90" y2="430" stroke="#334155" stroke-width="2"/>
  <line x1="90" y1="430" x2="860" y2="430" stroke="#334155" stroke-width="2"/>

  <line x1="90" y1="430" x2="860" y2="430" stroke="#e2e8f0" stroke-width="1"/>
  <line x1="90" y1="360" x2="860" y2="360" stroke="#e2e8f0" stroke-width="1"/>
  <line x1="90" y1="290" x2="860" y2="290" stroke="#e2e8f0" stroke-width="1"/>
  <line x1="90" y1="220" x2="860" y2="220" stroke="#e2e8f0" stroke-width="1"/>
  <line x1="90" y1="150" x2="860" y2="150" stroke="#e2e8f0" stroke-width="1"/>
  <line x1="90" y1="80" x2="860" y2="80" stroke="#e2e8f0" stroke-width="1"/>

  <text x="78" y="434" text-anchor="end" fill="#334155" font-size="14" font-family="Arial, Helvetica, sans-serif">0.0</text>
  <text x="78" y="364" text-anchor="end" fill="#334155" font-size="14" font-family="Arial, Helvetica, sans-serif">0.2</text>
  <text x="78" y="294" text-anchor="end" fill="#334155" font-size="14" font-family="Arial, Helvetica, sans-serif">0.4</text>
  <text x="78" y="224" text-anchor="end" fill="#334155" font-size="14" font-family="Arial, Helvetica, sans-serif">0.6</text>
  <text x="78" y="154" text-anchor="end" fill="#334155" font-size="14" font-family="Arial, Helvetica, sans-serif">0.8</text>
  <text x="78" y="84" text-anchor="end" fill="#334155" font-size="14" font-family="Arial, Helvetica, sans-serif">1.0</text>

  <rect x="110" y="80" width="100" height="350" fill="#3c7a3d" opacity="0.92"/>
  <rect x="250" y="253.9" width="100" height="176.1" fill="#3c7a3d" opacity="0.92"/>
  <rect x="390" y="299.3" width="100" height="130.7" fill="#3c7a3d" opacity="0.92"/>
  <rect x="530" y="340.6" width="100" height="89.4" fill="#3c7a3d" opacity="0.92"/>
  <rect x="670" y="361.4" width="100" height="68.6" fill="#3c7a3d" opacity="0.92"/>

  <text x="160" y="72" text-anchor="middle" fill="#0f172a" font-size="14" font-family="Arial, Helvetica, sans-serif">1.0000</text>
  <text x="300" y="246" text-anchor="middle" fill="#0f172a" font-size="14" font-family="Arial, Helvetica, sans-serif">0.5032</text>
  <text x="440" y="292" text-anchor="middle" fill="#0f172a" font-size="14" font-family="Arial, Helvetica, sans-serif">0.3733</text>
  <text x="580" y="333" text-anchor="middle" fill="#0f172a" font-size="14" font-family="Arial, Helvetica, sans-serif">0.2554</text>
  <text x="720" y="354" text-anchor="middle" fill="#0f172a" font-size="14" font-family="Arial, Helvetica, sans-serif">0.1961</text>

  <text x="160" y="456" text-anchor="middle" fill="#334155" font-size="16" font-family="Arial, Helvetica, sans-serif">1</text>
  <text x="300" y="456" text-anchor="middle" fill="#334155" font-size="16" font-family="Arial, Helvetica, sans-serif">2</text>
  <text x="440" y="456" text-anchor="middle" fill="#334155" font-size="16" font-family="Arial, Helvetica, sans-serif">4</text>
  <text x="580" y="456" text-anchor="middle" fill="#334155" font-size="16" font-family="Arial, Helvetica, sans-serif">8</text>
  <text x="720" y="456" text-anchor="middle" fill="#334155" font-size="16" font-family="Arial, Helvetica, sans-serif">12</text>

  <text x="470" y="492" text-anchor="middle" fill="#0f172a" font-size="16" font-family="Arial, Helvetica, sans-serif">Numero de processos</text>
  <text x="24" y="260" text-anchor="middle" fill="#0f172a" font-size="16" font-family="Arial, Helvetica, sans-serif" transform="rotate(-90 24 260)">Eficiencia</text>
</svg>
