<svg xmlns="http://www.w3.org/2000/svg" width="920" height="520" viewBox="0 0 920 520">
  <rect width="920" height="520" fill="#ffffff"/>
  <text x="460" y="36" text-anchor="middle" fill="#0f172a" font-size="28" font-family="Arial, Helvetica, sans-serif" font-weight="700">Speedup Real x Speedup Ideal</text>

  <line x1="90" y1="80" x2="90" y2="430" stroke="#334155" stroke-width="2"/>
  <line x1="90" y1="430" x2="860" y2="430" stroke="#334155" stroke-width="2"/>

  <line x1="90" y1="430" x2="860" y2="430" stroke="#e2e8f0" stroke-width="1"/>
  <line x1="90" y1="372" x2="860" y2="372" stroke="#e2e8f0" stroke-width="1"/>
  <line x1="90" y1="314" x2="860" y2="314" stroke="#e2e8f0" stroke-width="1"/>
  <line x1="90" y1="256" x2="860" y2="256" stroke="#e2e8f0" stroke-width="1"/>
  <line x1="90" y1="198" x2="860" y2="198" stroke="#e2e8f0" stroke-width="1"/>
  <line x1="90" y1="140" x2="860" y2="140" stroke="#e2e8f0" stroke-width="1"/>
  <line x1="90" y1="82" x2="860" y2="82" stroke="#e2e8f0" stroke-width="1"/>

  <text x="78" y="434" text-anchor="end" fill="#334155" font-size="14" font-family="Arial, Helvetica, sans-serif">0</text>
  <text x="78" y="376" text-anchor="end" fill="#334155" font-size="14" font-family="Arial, Helvetica, sans-serif">2</text>
  <text x="78" y="318" text-anchor="end" fill="#334155" font-size="14" font-family="Arial, Helvetica, sans-serif">4</text>
  <text x="78" y="260" text-anchor="end" fill="#334155" font-size="14" font-family="Arial, Helvetica, sans-serif">6</text>
  <text x="78" y="202" text-anchor="end" fill="#334155" font-size="14" font-family="Arial, Helvetica, sans-serif">8</text>
  <text x="78" y="144" text-anchor="end" fill="#334155" font-size="14" font-family="Arial, Helvetica, sans-serif">10</text>
  <text x="78" y="86" text-anchor="end" fill="#334155" font-size="14" font-family="Arial, Helvetica, sans-serif">12</text>

  <polyline fill="none" stroke="#d1495b" stroke-width="4" points="160,400.8 300,371.7 440,313.3 580,196.7 720,80"/>
  <circle cx="160" cy="400.8" r="5" fill="#d1495b"/>
  <circle cx="300" cy="371.7" r="5" fill="#d1495b"/>
  <circle cx="440" cy="313.3" r="5" fill="#d1495b"/>
  <circle cx="580" cy="196.7" r="5" fill="#d1495b"/>
  <circle cx="720" cy="80" r="5" fill="#d1495b"/>

  <polyline fill="none" stroke="#0f4c81" stroke-width="4" points="160,400.8 300,400.6 440,386.6 580,370.4 720,361.4"/>
  <circle cx="160" cy="400.8" r="5" fill="#0f4c81"/>
  <circle cx="300" cy="400.6" r="5" fill="#0f4c81"/>
  <circle cx="440" cy="386.6" r="5" fill="#0f4c81"/>
  <circle cx="580" cy="370.4" r="5" fill="#0f4c81"/>
  <circle cx="720" cy="361.4" r="5" fill="#0f4c81"/>

  <text x="725" y="355" fill="#0f4c81" font-size="14" font-family="Arial, Helvetica, sans-serif">Real: 2.3535</text>
  <text x="725" y="74" fill="#d1495b" font-size="14" font-family="Arial, Helvetica, sans-serif">Ideal: 12</text>

  <rect x="580" y="96" width="240" height="56" rx="12" fill="#f8fafc" stroke="#cbd5e1"/>
  <line x1="600" y1="116" x2="632" y2="116" stroke="#0f4c81" stroke-width="4"/>
  <text x="642" y="121" fill="#0f172a" font-size="14" font-family="Arial, Helvetica, sans-serif">Speedup real</text>
  <line x1="600" y1="136" x2="632" y2="136" stroke="#d1495b" stroke-width="4"/>
  <text x="642" y="141" fill="#0f172a" font-size="14" font-family="Arial, Helvetica, sans-serif">Speedup ideal</text>

  <text x="160" y="456" text-anchor="middle" fill="#334155" font-size="16" font-family="Arial, Helvetica, sans-serif">1</text>
  <text x="300" y="456" text-anchor="middle" fill="#334155" font-size="16" font-family="Arial, Helvetica, sans-serif">2</text>
  <text x="440" y="456" text-anchor="middle" fill="#334155" font-size="16" font-family="Arial, Helvetica, sans-serif">4</text>
  <text x="580" y="456" text-anchor="middle" fill="#334155" font-size="16" font-family="Arial, Helvetica, sans-serif">8</text>
  <text x="720" y="456" text-anchor="middle" fill="#334155" font-size="16" font-family="Arial, Helvetica, sans-serif">12</text>

  <text x="470" y="492" text-anchor="middle" fill="#0f172a" font-size="16" font-family="Arial, Helvetica, sans-serif">Numero de processos</text>
  <text x="24" y="260" text-anchor="middle" fill="#0f172a" font-size="16" font-family="Arial, Helvetica, sans-serif" transform="rotate(-90 24 260)">Speedup</text>
</svg>
