<svg xmlns="http://www.w3.org/2000/svg" width="920" height="520" viewBox="0 0 920 520">
  <rect width="920" height="520" fill="#ffffff"/>
  <text x="460" y="36" text-anchor="middle" fill="#0f172a" font-size="28" font-family="Arial, Helvetica, sans-serif" font-weight="700">Tempo de Execucao por Numero de Processos</text>

  <line x1="90" y1="80" x2="90" y2="430" stroke="#334155" stroke-width="2"/>
  <line x1="90" y1="430" x2="860" y2="430" stroke="#334155" stroke-width="2"/>

  <line x1="90" y1="430" x2="860" y2="430" stroke="#e2e8f0" stroke-width="1"/>
  <line x1="90" y1="358" x2="860" y2="358" stroke="#e2e8f0" stroke-width="1"/>
  <line x1="90" y1="286" x2="860" y2="286" stroke="#e2e8f0" stroke-width="1"/>
  <line x1="90" y1="214" x2="860" y2="214" stroke="#e2e8f0" stroke-width="1"/>
  <line x1="90" y1="142" x2="860" y2="142" stroke="#e2e8f0" stroke-width="1"/>
  <line x1="90" y1="70" x2="860" y2="70" stroke="#e2e8f0" stroke-width="1"/>

  <text x="78" y="434" text-anchor="end" fill="#334155" font-size="14" font-family="Arial, Helvetica, sans-serif">0</text>
  <text x="78" y="362" text-anchor="end" fill="#334155" font-size="14" font-family="Arial, Helvetica, sans-serif">5</text>
  <text x="78" y="290" text-anchor="end" fill="#334155" font-size="14" font-family="Arial, Helvetica, sans-serif">10</text>
  <text x="78" y="218" text-anchor="end" fill="#334155" font-size="14" font-family="Arial, Helvetica, sans-serif">15</text>
  <text x="78" y="146" text-anchor="end" fill="#334155" font-size="14" font-family="Arial, Helvetica, sans-serif">20</text>
  <text x="78" y="74" text-anchor="end" fill="#334155" font-size="14" font-family="Arial, Helvetica, sans-serif">25</text>

  <rect x="110" y="98.2" width="100" height="331.8" fill="#0f4c81" opacity="0.92"/>
  <rect x="250" y="100.3" width="100" height="329.7" fill="#0f4c81" opacity="0.92"/>
  <rect x="390" y="207.8" width="100" height="222.2" fill="#0f4c81" opacity="0.92"/>
  <rect x="530" y="267.6" width="100" height="162.4" fill="#0f4c81" opacity="0.92"/>
  <rect x="670" y="289.0" width="100" height="141.0" fill="#0f4c81" opacity="0.92"/>

  <text x="160" y="92" text-anchor="middle" fill="#0f172a" font-size="14" font-family="Arial, Helvetica, sans-serif">23.70 s</text>
  <text x="300" y="94" text-anchor="middle" fill="#0f172a" font-size="14" font-family="Arial, Helvetica, sans-serif">23.55 s</text>
  <text x="440" y="202" text-anchor="middle" fill="#0f172a" font-size="14" font-family="Arial, Helvetica, sans-serif">15.87 s</text>
  <text x="580" y="262" text-anchor="middle" fill="#0f172a" font-size="14" font-family="Arial, Helvetica, sans-serif">11.60 s</text>
  <text x="720" y="283" text-anchor="middle" fill="#0f172a" font-size="14" font-family="Arial, Helvetica, sans-serif">10.07 s</text>

  <text x="160" y="456" text-anchor="middle" fill="#334155" font-size="16" font-family="Arial, Helvetica, sans-serif">1</text>
  <text x="300" y="456" text-anchor="middle" fill="#334155" font-size="16" font-family="Arial, Helvetica, sans-serif">2</text>
  <text x="440" y="456" text-anchor="middle" fill="#334155" font-size="16" font-family="Arial, Helvetica, sans-serif">4</text>
  <text x="580" y="456" text-anchor="middle" fill="#334155" font-size="16" font-family="Arial, Helvetica, sans-serif">8</text>
  <text x="720" y="456" text-anchor="middle" fill="#334155" font-size="16" font-family="Arial, Helvetica, sans-serif">12</text>

  <text x="470" y="492" text-anchor="middle" fill="#0f172a" font-size="16" font-family="Arial, Helvetica, sans-serif">Numero de processos</text>
  <text x="24" y="260" text-anchor="middle" fill="#0f172a" font-size="16" font-family="Arial, Helvetica, sans-serif" transform="rotate(-90 24 260)">Tempo (s)</text>
</svg>
